<?xml version="1.0" encoding="utf-8"?>
<!-- Generator: Adobe Illustrator 24.1.1, SVG Export Plug-In . SVG Version: 6.00 Build 0)  -->
<svg version="1.1" id="Layer_1" xmlns="http://www.w3.org/2000/svg" xmlns:xlink="http://www.w3.org/1999/xlink" x="0px" y="0px"
	 viewBox="0 0 850.39 737.01" style="enable-background:new 0 0 850.39 737.01;" xml:space="preserve">
<style type="text/css">
	.st0{fill:#FFFFFF;}
</style>
<g>
	<path class="st0" d="M335.64,231.75c-2.47,2.71-4.19,5.8-5.52,9.28c6.09-5.61,11.23-11.03,15.61-16.44
		C341.92,225.95,338.5,228.47,335.64,231.75z M329.36,263.29c2.86,10.06,9.71,23.02,20.94,38.88c7.42-6,13.7-11.8,18.65-17.6
		C357.91,276.44,344.78,269.28,329.36,263.29z M403.4,326.35c-7.23,6.77-13.89,12.57-20.18,17.22l33.88,41.98v-2.32
		C417.1,363.29,412.54,344.53,403.4,326.35z M354.3,412.43c-1.14-1.16-4.38-5.22-10.09-12.38c-5.52-7.35-10.09-12.57-13.51-16.06
		c-19.22,17.6-28.93,34.63-28.93,50.68c0,7.74,3.05,14.51,8.95,20.5c5.71,5.8,12.75,8.9,20.75,8.9c11.61,0,27.22-7.35,47.39-21.67
		L354.3,412.43z M366.29,133.48v-0.19c-4.76-23.6-16.37-44.88-35.02-63.84c-25.12-25.15-71.57-37.72-139.7-37.72H46.15
		c-9.71,0-17.51,6.77-17.51,15.28v465.81c0,8.32,7.8,15.28,17.51,15.28h169.78c24.93,0,47.58-1.94,68.14-6
		c-3.43-0.97-6.85-2.32-10.28-3.68c-15.61-6.38-27.98-17.02-36.92-32.11c-8.18-13.54-12.56-27.86-13.32-43.33
		c-9.33,1.35-19.79,1.94-31.02,1.94h-43.2V307.97h49.1c29.88,0,52.91,6.38,68.9,18.76c7.04,5.42,12.56,11.8,16.37,19.34
		c4.38-2.9,8.95-5.61,13.89-8.12c-21.89-27.66-32.74-55.13-32.74-82.41c0-22.63,8.57-42.36,25.89-59
		c15.61-15.09,34.26-23.21,55.58-24.57c2.28-0.39,4.57-0.39,6.85-0.39c4.95,0,9.9,0.39,14.47,0.97c0.76-4.64,0.95-9.67,0.95-14.7
		C368.57,149.54,367.81,141.42,366.29,133.48z M228.11,206.41c-13.89,11.61-30.83,17.41-51.2,17.41h-27.6V114.91h28.36
		c20.37,0,37.3,4.64,50.82,14.12c13.7,9.48,20.37,21.08,20.37,34.82C248.85,180.68,242,195,228.11,206.41z"/>
	<path class="st0" d="M572.42,18C495.33,18,431,50.3,379.61,114.72c-4.76,6-9.33,12.19-13.32,18.57v0.19
		c-7.99,12.19-14.65,24.95-19.98,38.49c2.28-0.39,4.57-0.39,6.85-0.39c4.95,0,9.9,0.39,14.47,0.97
		c19.41,2.51,35.97,10.25,49.87,23.41c11.99,11.22,19.8,23.99,23.41,38.88c5.71-25.15,18.46-47.97,37.88-68.28
		c28.17-29.4,61.29-44.11,99.73-44.11c23.6,0,46.06,6.38,67.76,18.96c21.7,12.77,39.78,32.11,54.43,57.65l70.04-66.54
		C724.49,56.3,658.45,18,572.42,18z M375.8,230.98c-5.14-5.42-11.8-8.13-20.37-8.13c-3.43,0-6.66,0.58-9.71,1.74
		c-3.81,1.35-7.23,3.87-10.09,7.16c-2.47,2.71-4.19,5.8-5.52,9.28c-0.19,0.19-0.57,0.58-0.95,0.77c-0.19,1.35-0.38,2.51-0.38,3.87
		l-0.57,8.13v3.68l-0.19,5.22c0.38,0,0.95,0.19,1.33,0.58c2.86,10.06,9.71,23.02,20.94,38.88c7.42-6,13.7-11.8,18.65-17.6
		c9.9-11.22,14.66-22.05,14.66-32.3C383.61,243.36,380.94,236.4,375.8,230.98z M575.46,248v96.72h115.91
		c-12.18,30.56-28.36,51.26-48.34,62.29c-19.99,11.22-40.73,16.64-62.43,16.64c-26.46,0-50.44-6.58-71.76-19.73
		c-15.8,15.86-6.66,4.84-22.46,22.05c-11.04,11.99-17.51,17.99-19.79,18.38l92.69,83.37l0.19,0.19c3.04,0.19,6.09,0.19,9.33,0.19
		c37.31,0,74.23-8.71,110.58-26.31c36.54-17.6,66.04-45.27,88.31-83.18c22.46-37.91,33.5-73.31,33.5-106.39V248H575.46z
		 M437.09,285.34c-3.62,8.12-8.76,15.28-15.42,22.44c-6.47,6.77-12.56,12.96-18.27,18.57c-7.23,6.77-13.89,12.57-20.18,17.22
		l33.88,41.98l13.13,16.25c23.98-22.83,14.09-13.54,37.31-35.59C449.46,342.79,439.37,315.9,437.09,285.34z"/>
	<g>
		<path class="st0" d="M6.02,669.63v-69.88h24.75c7.59,0,13.42,1.43,17.5,4.29c4.08,2.86,6.12,6.89,6.12,12.09
			c0,3.77-1.24,7.07-3.72,9.89c-2.48,2.83-5.65,4.79-9.51,5.9v0.19c4.84,0.62,8.7,2.45,11.59,5.51c2.89,3.05,4.34,6.77,4.34,11.16
			c0,6.4-2.23,11.48-6.69,15.23c-4.46,3.75-10.54,5.63-18.26,5.63H6.02z M21.34,611.34v16.57h6.73c3.16,0,5.65-0.79,7.47-2.36
			c1.82-1.58,2.73-3.74,2.73-6.51c0-5.13-3.73-7.7-11.19-7.7H21.34z M21.34,639.61v18.42h8.3c3.54,0,6.31-0.84,8.32-2.53
			c2.01-1.69,3.01-4,3.01-6.92c0-2.79-0.99-4.99-2.96-6.58c-1.98-1.59-4.73-2.39-8.28-2.39H21.34z"/>
		<path class="st0" d="M128.81,670.84c-8.09,0-14.46-2.33-19.09-6.99c-4.63-4.66-6.95-10.99-6.95-18.98c0-8.25,2.4-14.71,7.21-19.37
			c4.81-4.66,11.3-6.99,19.49-6.99c8.06,0,14.38,2.33,18.97,6.99c4.58,4.66,6.88,10.83,6.88,18.49c0,8.29-2.36,14.83-7.09,19.64
			C143.5,668.44,137.03,670.84,128.81,670.84z M129.19,630.3c-3.54,0-6.29,1.25-8.25,3.75c-1.96,2.5-2.94,6.04-2.94,10.62
			c0,9.58,3.76,14.38,11.29,14.38c7.18,0,10.77-4.92,10.77-14.77C140.04,634.96,136.42,630.3,129.19,630.3z"/>
		<path class="st0" d="M227.03,670.84c-8.09,0-14.46-2.33-19.09-6.99c-4.63-4.66-6.95-10.99-6.95-18.98c0-8.25,2.4-14.71,7.21-19.37
			c4.81-4.66,11.3-6.99,19.49-6.99c8.06,0,14.38,2.33,18.97,6.99c4.58,4.66,6.88,10.83,6.88,18.49c0,8.29-2.36,14.83-7.09,19.64
			C241.72,668.44,235.25,670.84,227.03,670.84z M227.41,630.3c-3.54,0-6.29,1.25-8.25,3.75c-1.96,2.5-2.94,6.04-2.94,10.62
			c0,9.58,3.76,14.38,11.29,14.38c7.18,0,10.77-4.92,10.77-14.77C238.27,634.96,234.65,630.3,227.41,630.3z"/>
		<path class="st0" d="M350.76,669.63h-17.97l-15.51-24.76h-0.19v24.76h-14.99v-73.88h14.99v47.03h0.19l14.46-23.05h17.78
			l-17.4,23.44L350.76,669.63z"/>
		<path class="st0" d="M524.73,670.75c-1.68,0-3.26-0.23-4.77-0.68c-1.5-0.45-2.92-1.07-4.27-1.85c-1.34-0.78-2.62-1.7-3.82-2.75
			c-1.2-1.05-2.34-2.18-3.41-3.39c-1.17,0.97-2.58,1.98-4.22,3.02c-1.64,1.04-3.5,1.97-5.57,2.8c-2.07,0.83-4.36,1.51-6.85,2.05
			c-2.5,0.54-5.17,0.8-8.01,0.8c-3.7,0-7.12-0.46-10.27-1.37c-3.15-0.91-5.86-2.27-8.13-4.07c-2.28-1.8-4.05-4.04-5.33-6.7
			c-1.28-2.66-1.92-5.75-1.92-9.26c0-2.76,0.48-5.22,1.45-7.38c0.96-2.16,2.22-4.05,3.77-5.68c1.55-1.62,3.3-3.02,5.26-4.19
			c1.96-1.17,3.95-2.14,5.98-2.92c-0.98-0.78-1.97-1.68-2.96-2.71c-1-1.02-1.89-2.14-2.68-3.36c-0.79-1.22-1.43-2.54-1.92-3.97
			c-0.49-1.43-0.74-2.94-0.74-4.53c0-2.57,0.51-4.84,1.52-6.82s2.43-3.66,4.25-5.02c1.82-1.36,3.99-2.4,6.52-3.12
			c2.53-0.71,5.31-1.07,8.35-1.07c2.91,0,5.57,0.37,7.99,1.12c2.42,0.75,4.5,1.79,6.24,3.12s3.08,2.93,4.03,4.8
			c0.95,1.87,1.42,3.92,1.42,6.17c0,3.61-1.05,6.73-3.15,9.38c-2.1,2.65-5.07,4.8-8.89,6.46c1.52,0.71,2.97,1.53,4.36,2.44
			c1.39,0.91,2.75,1.95,4.08,3.12c1.33,1.17,2.62,2.49,3.89,3.97c1.26,1.48,2.51,3.18,3.75,5.09c2.59-3.35,4.45-6.91,5.57-10.7
			c1.12-3.78,1.68-7.72,1.68-11.82c0-1.23-0.07-2.42-0.21-3.56c-0.14-1.14-0.37-2.19-0.69-3.17h12.76c0.35,1.04,0.6,2.05,0.76,3.02
			s0.24,2.13,0.24,3.46c0,3.15-0.32,6.22-0.97,9.21c-0.65,2.99-1.56,5.85-2.73,8.58c-1.17,2.73-2.58,5.31-4.24,7.75
			c-1.66,2.44-3.49,4.71-5.48,6.82c1.55,1.66,3.15,2.93,4.79,3.83c1.64,0.89,3.19,1.34,4.65,1.34c1.52,0,3.07-0.17,4.65-0.51
			c1.58-0.34,2.96-0.82,4.13-1.44v11.6c-1.74,0.71-3.46,1.24-5.15,1.58C528.7,670.58,526.81,670.75,524.73,670.75z M484.56,659.1
			c1.87,0,3.62-0.19,5.26-0.56c1.64-0.37,3.19-0.87,4.65-1.49c1.45-0.62,2.81-1.33,4.05-2.14c1.25-0.81,2.4-1.66,3.44-2.53
			c-1.61-2.6-3.21-4.8-4.79-6.6c-1.58-1.8-3.15-3.35-4.69-4.63c-1.55-1.28-3.09-2.36-4.62-3.24c-1.53-0.88-3.08-1.67-4.62-2.39
			c-1.3,0.65-2.54,1.37-3.72,2.17c-1.19,0.8-2.24,1.72-3.15,2.78c-0.92,1.06-1.65,2.26-2.21,3.61c-0.55,1.35-0.83,2.9-0.83,4.65
			c0,1.56,0.27,2.97,0.81,4.24c0.54,1.27,1.3,2.36,2.3,3.27c1,0.91,2.18,1.62,3.56,2.12S482.88,659.1,484.56,659.1z M493.33,614.85
			c0-0.94-0.17-1.79-0.52-2.53c-0.35-0.75-0.82-1.37-1.42-1.88c-0.6-0.5-1.28-0.89-2.04-1.17c-0.76-0.28-1.57-0.41-2.42-0.41
			c-1.04,0-2,0.16-2.87,0.49c-0.87,0.33-1.63,0.76-2.28,1.32c-0.65,0.55-1.15,1.21-1.49,1.97c-0.35,0.76-0.52,1.58-0.52,2.46
			c0,1.82,0.55,3.49,1.66,5.02c1.11,1.53,2.48,2.76,4.13,3.7c1.04-0.39,2.03-0.84,2.96-1.37c0.93-0.52,1.75-1.14,2.47-1.85
			c0.71-0.71,1.28-1.54,1.71-2.49C493.12,617.17,493.33,616.08,493.33,614.85z"/>
		<path class="st0" d="M707.87,664.95c-6.64,3.93-14.89,5.9-24.75,5.9c-10.94,0-19.56-3.11-25.87-9.33
			c-6.31-6.22-9.46-14.79-9.46-25.71c0-10.98,3.45-19.93,10.34-26.85c6.89-6.92,16.06-10.38,27.5-10.38
			c7.21,0,13.56,1.02,19.06,3.07v14.77c-5.25-3.12-11.67-4.68-19.25-4.68c-6.35,0-11.53,2.12-15.53,6.36c-4,4.24-6,9.9-6,16.98
			c0,7.18,1.79,12.74,5.38,16.67c3.59,3.93,8.43,5.9,14.53,5.9c3.67,0,6.58-0.54,8.73-1.61v-13.64h-13.61v-12.57h28.93V664.95z"/>
		<path class="st0" d="M781.62,670.84c-8.09,0-14.46-2.33-19.09-6.99s-6.95-10.99-6.95-18.98c0-8.25,2.4-14.71,7.21-19.37
			c4.8-4.66,11.3-6.99,19.49-6.99c8.06,0,14.38,2.33,18.97,6.99c4.58,4.66,6.88,10.83,6.88,18.49c0,8.29-2.36,14.83-7.09,19.64
			C796.31,668.44,789.84,670.84,781.62,670.84z M782,630.3c-3.54,0-6.29,1.25-8.25,3.75c-1.96,2.5-2.94,6.04-2.94,10.62
			c0,9.58,3.76,14.38,11.29,14.38c7.18,0,10.76-4.92,10.76-14.77C792.86,634.96,789.24,630.3,782,630.3z"/>
	</g>
</g>
<g>
</g>
<g>
</g>
<g>
</g>
<g>
</g>
<g>
</g>
<g>
</g>
</svg>
